<?xml version="1.0" encoding="UTF-8" standalone="no"?>
<!-- Created with Inkscape (http://www.inkscape.org/) -->

<svg
   width="180"
   height="180"
   viewBox="0 0 180 180"
   version="1.1"
   id="svg1"
   xmlns="http://www.w3.org/2000/svg"
   xmlns:svg="http://www.w3.org/2000/svg">
  <defs
     id="defs1" />
  <g
     id="layer1">
    <path
       style="font-size:192px;font-family:'ETD-Good Day Sans';-inkscape-font-specification:'ETD-Good Day Sans, Normal';font-feature-settings:'rlig'"
       d="m 18.495848,70.034842 v 70.847998 c 0,3.456 3.072,5.376 7.488,5.376 h 23.232 c 1.344,0 3.072,-2.304 4.224,-2.304 h 16.320001 c 1.152,0 2.112,3.264 4.416,3.264 h 58.752001 c 11.52,0 31.488,-0.96 31.488,-3.264 V 58.898842 c 0,-4.608 -14.784,-6.912 -24.576,-8.064 -2.688,-6.528 -6.144,-17.28 -13.056,-17.28 H 89.919849 c -7.104,0 -11.328,12.48 -15.552,23.232 H 42.303848 c -0.768,0 -2.112,0.192 -3.648,0.96 l -18.816,9.792 c -1.152,0.576 -1.344,1.728 -1.344,2.496 z m 67.584001,-35.136 c -4.416,10.944 -12.864,28.416 -14.592,29.376 l -1.92,1.152 -18.432001,8.448 c -0.192,0.192 -0.576,0.384 -0.96,0.384 l -0.192,0.192 h -0.192 l -0.192,0.192 h -27.264 c -3.456,-0.192 -3.456,-2.688 -3.456,-6.336 0,3.456 2.304,4.416 3.456,4.416 h 27.264 c 0.192,0 0.768,0 1.344,-0.192 l 19.008001,-8.256 1.728,-0.96 c 0.96,-0.576 11.52,-25.728 14.4,-28.416 z m 57.792001,28.224 c -2.112,0 -12.288,-25.152 -13.632,-28.224 2.496,2.304 12.672,26.304 13.824,26.304 h 15.744 c 1.152,0 3.456,-0.96 3.456,-4.416 0,3.648 0,6.336 -3.456,6.336 z m -70.656001,1.152 c 3.648,-4.608 8.448,-10.752 10.56,-10.752 h 48.960001 c 2.304,0 7.104,6.144 10.56,10.752 -4.608,-4.608 -9.6,-9.216 -11.712,-9.216 H 84.927849 c -2.112,0 -7.104,4.608 -11.712,9.216 z m -43.200001,2.496 c 0,-2.112 2.688,-3.456 6.912,-3.456 4.032,0 6.912,1.344 6.912,3.456 0,2.112 -2.88,3.456 -6.912,3.456 -4.224,0 -6.912,-1.344 -6.912,-3.456 z m 39.552001,0.96 1.92,-1.152 0.192,15.552 v 60.671998 c 0,1.152 0.192,1.92 0.384,2.88 -0.96,-1.152 -2.496,-3.456 -2.496,-5.76 z m 4.608,34.559998 c 0,-20.543998 13.632,-34.175998 34.176001,-34.175998 20.16,0 33.792,13.632 33.792,34.175998 0,20.16 -13.632,33.792 -33.792,33.792 -20.544001,0 -34.176001,-13.632 -34.176001,-33.792 z M 53.631848,81.554842 v 57.791998 c 0,2.112 -1.344,4.416 -2.496,5.76 0.384,-1.152 0.384,-1.92 0.384,-3.072 V 81.554842 c 0,-3.648 -0.576,-4.992 -1.344,-7.296 0.192,0 0.384,-0.192 0.576,-0.192 1.728,1.152 2.88,2.688 2.88,7.488 z"
       id="text1"
       aria-label="icon" />
  </g>
</svg>
