<?xml version="1.0" encoding="UTF-8" standalone="no"?>
<!-- Created with Inkscape (http://www.inkscape.org/) -->

<svg
   width="32"
   height="32"
   viewBox="0 0 32 32"
   version="1.1"
   id="svg1"
   sodipodi:docname="favicon.svg"
   inkscape:version="1.4 (86a8ad7, 2024-10-11)"
   xmlns:inkscape="http://www.inkscape.org/namespaces/inkscape"
   xmlns:sodipodi="http://sodipodi.sourceforge.net/DTD/sodipodi-0.dtd"
   xmlns="http://www.w3.org/2000/svg"
   xmlns:svg="http://www.w3.org/2000/svg">
  <sodipodi:namedview
     id="namedview1"
     pagecolor="#ffffff"
     bordercolor="#000000"
     borderopacity="0.25"
     inkscape:showpageshadow="2"
     inkscape:pageopacity="0.0"
     inkscape:pagecheckerboard="0"
     inkscape:deskcolor="#d1d1d1"
     inkscape:document-units="px"
     inkscape:zoom="13.089332"
     inkscape:cx="13.942652"
     inkscape:cy="26.395541"
     inkscape:window-width="1920"
     inkscape:window-height="1051"
     inkscape:window-x="-9"
     inkscape:window-y="-9"
     inkscape:window-maximized="1"
     inkscape:current-layer="layer1"
     inkscape:export-bgcolor="#12121200" />
  <defs
     id="defs1" />
  <g
     inkscape:label="Layer 1"
     inkscape:groupmode="layer"
     id="layer1">
    <path
       style="font-size:192px;font-family:'ETD-Good Day Sans';-inkscape-font-specification:'ETD-Good Day Sans, Normal';font-feature-settings:'rlig';stroke-width:0.19189;fill:#3498db;fill-opacity:1"
       d="m 2.0976007,11.174144 v 13.595063 c 0,0.663173 0.5894877,1.031598 1.4368762,1.031598 h 4.458001 c 0.2579016,0 0.5894881,-0.442115 0.8105465,-0.442115 h 3.1316516 c 0.221058,0 0.405273,0.626335 0.847389,0.626335 h 11.273953 c 2.210579,0 6.042253,-0.18422 6.042253,-0.626335 V 9.03725 c 0,-0.8842318 -2.836914,-1.3263476 -4.715907,-1.5474054 C 24.866566,6.2371831 24.203392,4.1739757 22.877045,4.1739757 h -7.073854 c -1.36319,0 -2.173737,2.3947942 -2.984283,4.4580015 H 6.6661308 c -0.147372,0 -0.4052731,0.036845 -0.7000167,0.1842145 L 2.3555017,10.695185 c -0.2210579,0.110528 -0.257901,0.331586 -0.257901,0.478959 z M 15.06633,4.4318769 C 14.218941,6.5319273 12.597851,9.884638 12.266264,10.068854 l -0.368431,0.221057 -3.5369253,1.621091 c -0.036835,0.03683 -0.1105282,0.07369 -0.1842143,0.07369 l -0.03684,0.03686 h -0.03684 l -0.03684,0.03683 H 2.8344535 c -0.6631744,-0.03683 -0.6631744,-0.515803 -0.6631744,-1.21582 0,0.663174 0.4421166,0.847388 0.6631744,0.847388 h 5.2317041 c 0.03684,0 0.1473715,0 0.2579007,-0.03683 l 3.6474527,-1.584252 0.331587,-0.184215 c 0.184216,-0.110529 2.21058,-4.9369593 2.763225,-5.4527615 z M 26.156068,9.847795 c -0.405272,0 -2.357953,-4.8264302 -2.615849,-5.4159181 0.478953,0.4421158 2.431637,5.0474891 2.652694,5.0474891 h 3.021126 c 0.221059,0 0.663173,-0.184215 0.663173,-0.8473888 0,0.7000168 0,1.2158178 -0.663173,1.2158178 z m -13.558217,0.221059 c 0.700016,-0.884232 1.62109,-2.0632073 2.026364,-2.0632073 h 9.394957 c 0.442116,0 1.363192,1.1789753 2.026366,2.0632073 C 25.161307,9.184622 24.203392,8.3003903 23.798115,8.3003903 h -8.952843 c -0.405271,0 -1.36319,0.8842317 -2.247421,1.7684637 z M 4.30818,10.547812 c 0,-0.405272 0.5158015,-0.663174 1.3263472,-0.663174 0.7737026,0 1.3263473,0.257902 1.3263473,0.663174 0,0.405273 -0.5526447,0.663174 -1.3263473,0.663174 -0.8105457,0 -1.3263472,-0.257901 -1.3263472,-0.663174 z m 7.589653,0.184216 0.368431,-0.221058 0.03683,2.984282 v 11.64238 c 0,0.221058 0.03683,0.368431 0.07369,0.552644 -0.184215,-0.221058 -0.478959,-0.663173 -0.478959,-1.105289 z m 0.884232,6.631736 c 0,-3.942198 2.615852,-6.558051 6.558052,-6.558051 3.868514,0 6.484364,2.615853 6.484364,6.558051 0,3.868514 -2.61585,6.484366 -6.484364,6.484366 -3.9422,0 -6.558052,-2.615852 -6.558052,-6.484366 z M 8.8398674,13.384721 v 11.089737 c 0,0.405277 -0.2579014,0.847393 -0.4789597,1.105289 0.07369,-0.221057 0.07369,-0.368424 0.07369,-0.589482 V 13.384721 c 0,-0.700016 -0.1105292,-0.957916 -0.2579003,-1.400033 0.03684,0 0.07369,-0.03683 0.1105291,-0.03683 0.3315865,0.221059 0.5526448,0.515803 0.5526448,1.436877 z"
       id="text1"
       aria-label="icon"
       sodipodi:nodetypes="sssssssssscsscsccsccccccccccssccccscsscsscsscsscssssscccscscssssssscssccs" />
  </g>
</svg>
